<?xml version="1.0" encoding="utf-8"?>
<!-- Generator: Adobe Illustrator 23.0.3, SVG Export Plug-In . SVG Version: 6.00 Build 0)  -->
<svg version="1.1" id="Layer_1" xmlns="http://www.w3.org/2000/svg" xmlns:xlink="http://www.w3.org/1999/xlink" x="0px" y="0px"
	 viewBox="0 0 1200 1200" enable-background="new 0 0 1200 1200" xml:space="preserve">
<g>
	<path fill="#2C2C2C" d="M888.329,601.329c-1.385-8.198-11.044-9.829-17.596-12.047c-5.339-1.808-10.705-3.368-16.227-4.521
		c-2.76-0.576-5.557-0.951-8.318-1.508c-2.29-0.461-2.491-1.011-3.727-3.005c-4.876-7.866-14.254-9.757-22.196-4.913
		c-1.37,0.836-2.405,2.279-4.033,2.511c-2.131,0.304-5.115-0.902-7.214-1.256c-6.099-1.029-12.27-1.711-18.422-2.338
		c-11.778-1.201-23.607-1.862-35.428-2.489c-5.955-0.316-11.898-0.612-17.827-1.273c-2.235-0.249-8.547,0.194-8.933-2.963
		c-0.283-2.314,3.479-6.304,5.437-7.054c2.234-0.855,4.342,0.219,6.61-1.061c1.997-1.127,3.604-2.979,5-4.752
		c2.666-3.388,6.203-7.669,7.467-11.832c0.901-2.966-0.094-5.409-0.337-8.335c-0.245-2.95,1.209-5.321,2.193-8.021
		c1.048-2.876,1.147-8.82,3.999-10.066c1.71-0.747,3.143-0.505,4.737-1.859c1.769-1.503,2.856-3.652,3.738-5.755
		c1.634-3.895,3.009-8.045,3.797-12.192c0.47-2.472,0.873-5.18,0.545-7.697c-0.359-2.748-2.218-4.483-3.043-6.934
		c-0.651-1.933,0.536-3.256,1.225-5.134c0.603-1.645,0.479-3.71,1.295-5.246c0.946-1.781,2.821-1.808,4.382-2.889
		c2.201-1.525,3.381-3.915,4.287-6.35c1.637-4.4,2.578-9.133,3.101-13.793c0.273-2.435,0.361-4.898-0.101-7.318
		c-0.524-2.743-2.731-5.154-3.067-7.805c-0.355-2.795,1.408-8.476,2.851-10.878c1.048-1.743,2.784-2.726,4.359-3.924
		c2.136-1.625,3.705-3.536,4.829-5.986c2.012-4.386,2.62-9.483,3.667-14.16c0.442-1.973,0.987-4.044,0.95-6.087
		c-0.061-3.295-1.768-4.246-3.549-6.621c-1.674-2.232-0.703-7.995,0.689-10.351c0.846-1.432,2.568-1.844,3.851-2.867
		c1.704-1.358,2.815-3.094,3.507-5.145c1.449-4.29,1.792-9.178,2.425-13.639c0.339-2.387,0.996-5.057,0.581-7.469
		c-0.445-2.582-2.211-4.181-3.58-6.255c-2.321-3.516-1.41-9.102,2.11-11.514c4.796-3.286,5.945-6.923,7.13-12.48
		c1.222-5.73,3.609-12.675,0.28-18.028c-0.924-1.487-2.956-3.143-3.451-4.823c-0.475-1.613,0.495-3.543,0.806-5.112
		c0.402-2.025,0.414-3.573,1.685-5.258c1.301-1.725,2.967-2.99,3.902-5c2.495-5.364,2.064-12.543,2.794-18.329
		c0.321-2.549,0.726-5.181-0.128-7.678c-0.892-2.608-2.86-3.703-4.486-5.701c-1.63-2.004-1.038-4.037-0.877-6.498
		c0.067-1.027,0.074-2.083,0.36-3.082c0.211-0.737,1.944-3.074,1.042-2.349c4.363-3.741,7.215-8.432,7.911-14.172
		c0.666-5.494,2.093-13.841-0.067-19.108c-0.811-1.979-3.059-2.685-3.834-4.483c-0.826-1.914,0.169-5.886,0.27-7.94
		c0.286-5.794,5.661-7.82,7.361-13.072c0.783-2.418,0.782-4.692,2.995-6.262c1.987-1.41,4.495-2.273,6.605-3.533
		c5.272-3.149,7.795-6.236,7.783-12.534c-0.028-14.248,0.741-28.478,0.562-42.743c-0.102-8.135-0.069-16.277-0.226-24.411
		c-0.059-3.056,0.108-6.577-1.598-9.261c-0.777-1.222-1.867-2.183-3.017-3.04c-0.639-0.476-3.761-2.39-2.456-1.476
		c-5.939-3.69-12.964-5.221-19.624-7.067c-7.247-2.009-14.605-3.452-22.049-4.504c-15.321-2.166-30.758-3.846-46.153-5.39
		c-15.359-1.54-30.677-1.783-46.066-2.694c-15.486-0.917-30.961-0.603-46.44-1.379c-8.844-0.443-17.679-1.207-26.541-1.126
		l-51.517,0.139c-7.927-0.002-15.846,0.6-23.771,0.774c-15.433,0.338-30.903,0.369-46.316,1.228
		c-15.468,0.862-30.889,1.031-46.313,2.666c-15.653,1.659-31.352,3.261-46.976,5.155c-8.523,1.033-16.868,2.641-25.18,4.771
		c-7.098,1.819-14.511,3.517-20.807,7.429c1.488-1.043-1.19,0.606-1.598,0.87c-1.058,0.681-2.133,1.405-3.028,2.3
		c-2.064,2.063-2.503,4.447-2.588,7.282c-0.196,6.583,0.103,13.233,0.064,19.826c-0.086,14.644,0.105,29.195,0.505,43.834
		c0.172,6.321-1.403,13.123,4.413,17.173c3.576,2.49,10.617,4.381,11.88,8.836c0.806,2.844,1.482,5.059,3.427,7.409
		c1.567,1.893,4.094,3.359,4.94,5.746c0.762,2.149,0.117,4.692,0.195,6.915c0.072,2.038,0.645,3.392-0.721,5.046
		c-2.154,2.61-3.477,3.489-3.843,7.154c-0.347,3.477-0.01,6.988,0.288,10.454c0.294,3.419,0.154,7.19,1.467,10.414
		c1.354,3.326,4.182,6.471,6.886,8.774c-1.088-0.875,0.082,0.194,0.213,0.426c0.373,0.665,0.637,1.21,0.834,1.942
		c0.378,1.401,0.347,3.098,0.449,4.529c0.278,3.916-1.546,5.132-3.912,7.936c-2.065,2.447-2.43,4.868-2.117,7.996
		c0.425,4.254,1.104,8.513,1.583,12.769c0.36,3.198,0.584,6.926,2.397,9.703c1.816,2.782,4.345,3.644,4.937,7.196
		c0.515,3.094,0.903,5.988-0.84,8.705c-1.785,2.782-3.676,4.764-3.6,8.264c0.122,5.58,1.158,12.357,3.105,17.588
		c0.909,2.442,2.197,4.719,4.341,6.27c3.188,2.305,3.932,3.241,4.637,7.269c0.63,3.603-0.64,4.61-2.645,7.525
		c-2.389,3.474-2.147,6.755-1.481,10.781c0.903,5.462,0.91,13.489,4.621,17.95c1.602,1.925,4.684,2.523,5.733,4.662
		c0.42,0.857,0.286,2.332,0.479,3.282c0.307,1.511,1.047,3.104,0.971,4.664c-0.13,2.682-2.678,3.496-3.86,5.624
		c-1.825,3.285-0.022,7.553,0.663,10.918c1.268,6.234,1.862,12.864,6.763,17.45c2.096,1.961,4.644,3.238,5.817,5.947
		c1.161,2.683,3.216,7.166,2.568,10.124c-0.732,3.345-3.111,5.95-3.46,9.555c-0.386,3.986,0.565,8.223,1.5,12.072
		c0.795,3.273,1.56,6.835,3.199,9.806c0.901,1.632,1.941,2.852,3.54,3.783c1.522,0.885,2.872,1.033,3.843,2.649
		c1.254,2.086,2.025,6.02,2.403,8.439c0.455,2.91-2.241,5.522-2.645,8.518c-0.988,7.326,2.011,16.059,5.298,22.512
		c1.366,2.681,3.137,4.316,6.007,5.244c3.518,1.138,3.671,3.693,4.598,7.203c0.807,3.055,2.814,6.422,3.09,9.518
		c0.317,3.557-1.629,6.347-0.434,10.023c1.031,3.171,3.286,5.896,5.196,8.573c2.063,2.89,4.329,6.318,7.599,7.98
		c2.321,1.179,5.099,0.311,7.244,1.76c1.584,1.07,5.081,5.069,4.163,7.088c-1.005,2.21-5.595,1.686-7.594,1.913
		c-4.141,0.471-8.291,0.826-12.449,1.104c-8.7,0.581-17.403,1.167-26.106,1.703c-8.319,0.512-16.611,1.117-24.889,2.108
		c-4.387,0.526-8.747,1.155-13.086,1.993c-4.402,0.85-5.015-0.655-8.57-2.578c-5.929-3.208-13.869-2.679-18.604,2.212
		c-1.62,1.673-2.475,4.709-4.336,5.945c-2.756,1.83-7.968,1.711-11.176,2.206c-8.016,1.238-15.958,4.129-23.485,7.1
		c-6.669,2.633-10.354,6.307-8.921,14.004c6.313,33.908,14.494,67.507,22.146,101.132c3.911,17.185,8.086,34.291,12.43,51.37
		c2.052,8.07,3.318,16.365,5.828,24.314c2.128,6.738,5.938,15.367,13.613,17.184c2.277,0.539,5.171-0.758,7.311,0.11
		c2.048,0.831,3.012,5.062,4.171,6.881c3.868,6.071,9.773,9.209,16.819,10.272c16.415,2.476,33.197-2.437,49.081-5.937
		c7.467-1.645,15.655-1.809,22.73-4.858c1.639,11.022,5.607,22.394,18.824,21.383c7.556-0.578,14.613-4.001,21.452-6.993
		c7.679-3.359,15.34-6.759,23.031-10.09c3.514-1.522,6.687-2.962,10.573-3.078c4.109-0.123,8.242,0.125,12.352,0.169
		c3.963,0.042,7.927,0.086,11.891,0.117c1.982,0.015,3.964,0.036,5.946,0.035c0.871,0,3.531-0.478,4.342-0.051
		c1.926,1.014,0.987,6.076,0.938,7.758c-0.131,4.424-0.063,8.859-0.074,13.285c-0.02,8.803-0.039,17.607-0.059,26.41
		c-0.157,69.659-0.339,139.318-0.54,208.976c-0.05,17.627-0.113,35.254-0.15,52.881c-0.017,8.198-0.257,16.434-0.052,24.628
		c0.207,8.278,7.571,7.712,14.246,7.803c8.552,0.117,17.157,0.288,25.705-0.075c2.776-0.118,6.731-0.045,8.986-1.943
		c2.165-1.822,1.865-4.981,1.859-7.525c-0.044-17.443-0.089-34.886-0.135-52.329c-0.18-69.262-0.35-138.523-0.529-207.785
		c-0.045-17.531-0.087-35.061-0.13-52.592c-0.01-3.794,0.066-7.601-0.058-11.393c-0.072-2.188-1.193-7.416,1.048-8.206
		c0.87-0.306,2.746,0.141,3.707,0.163c1.949,0.044,3.907-0.003,5.856-0.012c4.392-0.019,8.785-0.062,13.177-0.131
		c3.91-0.061,7.841-0.273,11.751-0.162c4.25,0.121,7.737,1.864,11.57,3.524c7.406,3.208,14.784,6.482,22.178,9.717
		c10.362,4.534,27.791,13.131,35.645,0.237c2.677-4.394,3.656-9.705,4.403-14.722c4.848,2.09,10.181,2.576,15.334,3.444
		c5.561,0.937,11.016,2.405,16.535,3.548c10.7,2.216,21.401,4.481,32.389,4.296c7.854-0.132,16.368-1.456,21.947-7.526
		c1.623-1.765,2.906-3.853,4.035-5.959c0.641-1.195,1.173-3.801,2.342-4.397c0.897-0.457,2.858,0.371,3.887,0.399
		c2.335,0.064,4.658-0.554,6.711-1.662c8.305-4.482,10.852-15.335,12.598-23.795c2.161-10.471,4.906-20.727,7.575-31.075
		c6.026-23.36,10.741-47.081,16.177-70.584c2.921-12.629,5.994-25.224,8.71-37.899c1.328-6.194,2.523-12.415,3.82-18.616
		C886.796,611.879,889.097,606.415,888.329,601.329z M386.826,601.089c2.438-2.208,1.36-6.878,3.695-8.607
		c0.898-0.665,2.767-0.327,3.834-0.388c2.313-0.132,4.63-0.325,6.939-0.501c9.303-0.711,18.585-1.622,27.901-2.166
		c4.736-0.277,9.511-0.729,14.255-0.782c2.595-0.029,6.046,0.803,8.473-0.351c-0.234,4.084,0.979,12.394,4.721,15.177
		c-3.306,0.564-6.08,2.019-8.254,4.593c-0.702,0.831-1.111,1.805-2.114,2.221c-1.24,0.514-3.855-0.203-5.183-0.294
		c-9.418-0.648-18.776-1.941-28.201-2.58c-9.363-0.635-18.704-1.394-28.047-2.281c-2.283-0.217-4.562-0.431-6.819-0.845
		c-1.239-0.227-4.092-0.218-5.016-0.979c-1.179-0.973-0.552-3.601-0.796-3.93C375.082,603.128,383.22,604.353,386.826,601.089z
		 M449.254,645.214c0.271,5.607-0.179,11.313,1.01,16.841c-5.106-0.353-10.741,1.026-15.811,1.619
		c-5.706,0.668-11.4,1.479-17.101,2.198c-9.619,1.213-19.082,3.258-28.516,5.432c-3.944,0.909-4.854,0.002-5.67-3.84
		c-0.911-4.289-1.759-8.597-2.671-12.89c-1.219-5.738-2.374-11.491-3.424-17.262c-0.996-5.468-1.282-11.327-2.728-16.682
		c17.393,0.875,34.764,2.169,52.168,2.829c4.15,0.157,8.27,0.392,12.399,0.855c2.214,0.248,6.371-0.212,8.388,0.774
		c2.164,1.059,1.233,5.026,1.332,7.185C448.827,636.587,449.046,640.9,449.254,645.214z M391.553,690.898
		c2.33-0.584,4.667-1.139,7.01-1.666c10.322-2.321,20.766-4.104,31.277-5.31c5.015-0.575,10.084-0.994,15.061-1.833
		c2.413-0.407,5.97-1.905,6.61,1.065c0.276,1.281-0.047,2.751-0.021,4.056c0.057,2.868,0.344,5.747,0.549,8.608
		c0.445,6.213,0.959,12.422,1.211,18.647c-19.555-1.07-40.14-1.256-59.037-6.961c-4.042-1.22-3.886-7.254-4.537-10.859
		c-0.2-1.111-0.696-2.465-0.645-3.602C389.127,690.928,389.27,691.471,391.553,690.898z M375.335,694.784
		c0.44,1.924,0.888,3.847,1.339,5.769c-1.898-0.936-6.992-1.225-7.428-3.874C371.291,696.101,373.33,695.492,375.335,694.784z
		 M362.044,647.353c2.357,9.24,3.89,18.946,7.478,27.813c-1.502,0.389-2.995,0.811-4.486,1.238
		c-0.196-4.673-2.017-9.504-3.035-14.058c-1.25-5.594-2.65-11.15-4.003-16.719c-1.232-5.069-2.484-10.138-3.477-15.26
		c-0.921-4.745-1.737-9.646-3.889-14.022c1.462,0.366,2.927,0.797,4.441,0.873C357.649,627.204,359.494,637.361,362.044,647.353z
		 M354.169,596.709c-0.228,1.411-0.43,2.831-0.552,4.255c-2.618-1.15-7.324-0.219-9.438-2.215
		C347.432,597.787,351.066,598.206,354.169,596.709z M346.044,683.236c-0.763,0.328-1.506,0.696-2.23,1.104
		c-1.658-7.207-3.261-14.427-4.915-21.635c-0.772-3.363-1.554-6.725-2.359-10.081c-0.345-1.438-0.693-2.876-1.047-4.312
		c-0.185-0.752-0.938-4.656-0.811-3.94c-1.19-6.73-3.103-13.366-4.734-19.998c-1.094-4.449-1.089-11.476-4.051-15.121
		c3.404,1.293,6.834,2.423,10.296,3.534c3.001,0.962,3.16,1.85,3.824,4.921c1.728,7.998,3.726,15.96,6.009,23.817
		c2.243,7.72,4.303,15.574,5.732,23.491c0.726,4.024,1.15,8.116,2.201,12.077c0.106,0.4,0.926,2.241,0.768,2.56
		c-0.165,0.33-2.133,0.768-2.523,0.918C350.115,681.374,348.069,682.287,346.044,683.236z M375.29,784.529
		c-0.447,0.541-4.819,0.392-5.637,0.304c-2.207-0.24-1.822-1.72-2.27-3.818c-0.751-3.511-1.534-7.008-2.433-10.485
		c-1.734-6.702-3.066-13.477-4.555-20.234c-1.409-6.395-3.207-12.696-4.674-19.077c-0.791-3.438-1.62-6.878-2.338-10.332
		c-0.568-2.731-0.677-5.952-2.316-8.316c2.831,0.783,5.796,1.239,8.597,2.095c2.705,0.827,1.961,1.649,2.288,4.195
		c1.054,8.21,3.277,16.461,4.903,24.583c1.642,8.206,3.319,16.412,5.357,24.531c0.957,3.814,2.134,7.608,2.722,11.503
		C375.07,780.379,375.894,783.797,375.29,784.529z M389.407,781.294c-0.974-4.047-1.873-8.111-2.739-12.182
		c-1.732-8.142-3.331-16.313-5.151-24.436c-1.067-4.761-2.139-9.526-3.137-14.302c-0.784-3.753-1.089-7.83-2.9-11.277
		c2.774,0.726,4.757,0.719,5.695,3.798c0.853,2.8,1.139,5.862,1.832,8.715c1.933,7.957,3.603,15.974,5.578,23.922
		c1.303,5.244,2.288,10.534,3.555,15.777c1.027,4.25,2.735,9.71,7.403,11.165c-1.843,0.066-3.693,0.109-5.53,0.293
		c-0.951,0.095-2.582,0.749-3.413,0.523C389.555,783.007,389.727,782.622,389.407,781.294z M453.994,794.038
		c-7.586,6.035-20.725,5.721-29.837,6.687c-11.089,1.175-23.553,4.372-33.354-2.358c10.652-1.548,21.308-2.412,32.022-3.349
		c10.15-0.887,20.996-1.46,30.893-3.949C453.798,792.085,454.37,793.008,453.994,794.038z M458.084,766.03
		c-9.07,0.357-18.136,0.826-27.208,1.142c-4.658,0.162-9.318,0.286-13.979,0.333c-2.209,0.022-4.424-0.035-6.632,0.012
		c-0.986,0.021-2.95,0.515-3.858,0.208c-1.758-0.594-1.649-3.606-2.039-5.334c-1.004-4.458-2.013-8.909-2.909-13.392
		c-1.638-8.193-2.526-17.472-5.89-25.17c8.281,1.53,16.941,2.207,25.312,3.243c8.46,1.047,16.938,1.945,25.413,2.86
		c1.852,0.2,3.708,0.476,5.565,0.62c0.895,0.069,2.552-0.213,3.303,0.432c1.73,1.488,1.318,6.824,1.483,9.111
		c0.624,8.657,1.475,17.264,2.447,25.89C458.756,766,458.42,766.015,458.084,766.03z M729.658,594.628
		c-3.101,4.002-6.223,12.158-3.334,16.956c-2.741-0.701-5.675-0.027-8.435,0.216c-3.114,0.274-6.248,0.415-9.37,0.575
		c-6.496,0.333-12.997,0.539-19.5,0.678c3.428-0.575,5.615-5.755,6.648-8.57c0.718-1.955,0.585-3.526,0.915-5.507
		c0.369-2.214,1.924-3.348,3.574-4.863c1.878-1.724,3.375-1.839,5.849-2.011c2.77-0.193,5.414-1.081,7.781-2.547
		c1.598-0.99,2.996-2.685,4.843-3.217c2.223-0.64,4.729,0.246,6.951,0.425c-0.698,0.114,0.34,2.885,0.513,3.328
		C726.826,591.965,727.919,593.558,729.658,594.628z M684.795,571.232c-2.535-0.678-4.699,0.44-6.174-2.201
		c-1.134-2.032-0.991-4.776-1.59-6.987c2.649-0.277,5.631-0.022,8.074-1.268c0.948-0.484,1.797-1.201,2.586-2.02
		c-1.076,1.37-2.156,2.847-2.759,4.401C683.923,565.759,684.65,568.554,684.795,571.232z M682.476,512.482
		c-1.98,3.167-2.408,5.734-1.269,9.299c1.005,3.147,2.202,5.691,0.128,8.672c-1.964,2.822-5.042,2.127-8.013,3.021
		c-2.886,0.868-4.842,2.713-6.661,5.059c-2.369,3.082-5.902,5.733-4.142,9.965c1.272,3.059,2.05,6.366-1.644,8.08
		c-1.513,0.702-3.208,0.72-4.663,1.623c-1.804,1.118-3.144,3.01-4.399,4.679c-2.098,2.79-3.366,5.366-7.264,5.265
		c3.364-1.641,4.456-6.838,5.743-9.999c1.588-3.901,4.796-8.946,3.468-13.279c-1.393-4.545-4.642-5.583-2.81-10.694
		c0.601-1.677,0.986-3.321,2.517-4.394c1.694-1.188,3.75-1.387,5.31-2.883c2.614-2.506,4.13-6.338,5.372-9.656
		c1.295-3.457,3.846-8.795,2.963-12.529c-0.375-1.584-1.362-2.973-2.353-4.23c-0.739-0.938-2.537-2.182-2.841-3.304
		c-0.525-1.935,1.031-5.65,2.512-6.8c1.308-1.015,3.215-0.947,4.564-2.002c1.584-1.238,2.286-3.191,2.959-5.02
		c1.701-4.625,2.839-9.49,4.18-14.229c1.23-4.348,2.66-7.536-0.286-11.493c-0.967-1.3-2.553-2.617-2.828-4.304
		c-0.297-1.822,0.93-5.174,1.504-6.904c1.136-3.426,4.119-4.166,6.443-6.572c2.739-2.835,2.953-7.823,3.891-11.46
		c1.026-3.979,2.514-8.451,0.26-12.245c-1.892-3.186-5.596-4.866-4.778-8.923c0.748-3.712,1.191-7.219,4.478-9.463
		c3.422-2.335,5.806-3.616,6.519-7.961c0.644-3.92,1.313-7.84,1.955-11.765c0.867-5.301-0.311-8.588-3.474-12.758
		c-1.842-2.428-1.67-5.25-0.457-8.13c1.306-3.101,4.867-4.056,6.455-6.93c1.788-3.236,1.523-8.501,2.38-12.136
		c1.09-4.624,1.428-8.311-1.182-12.477c-2.368-3.78-4.506-5.478-4.092-10.229c0.345-3.954,2.656-3.786,4.863-6.614
		c1.969-2.523,1.696-6.17,2.154-9.175c0.762-4.993,2.439-10.511,0.38-15.4c-1.397-3.317-4.173-5.963-4.428-9.685
		c-0.101-1.471-0.095-3.299,0.392-4.716c0.69-2.01,2.03-2.456,3.445-3.873c2.713-2.716,2.74-7.509,3.267-11.073
		c0.628-4.245,1.673-8.823,1.167-13.128c-0.236-2.005-0.955-3.828-2.088-5.49c-1.235-1.812-3.384-2.796-4.56-4.53
		c-1.143-1.686-0.691-6.81,0.107-8.745c0.593-1.438,2.204-2.099,3.175-3.27c1.386-1.671,1.622-3.561,1.911-5.658
		c0.738-5.359,1.481-10.84,1.924-16.23c0.18-2.185,0.269-4.475-1.211-6.255c-1.038-1.249-2.784-1.792-3.746-3.105
		c-0.783-1.069-1.177-2.499-1.023-3.857c0.23-2.033,0.552-1.767,2.432-1.829c11.825-0.39,23.605-0.999,35.408-1.857
		c-0.102,2.212,0.884,5.024-0.518,6.958c-1.48,2.043-4.191,2.565-5.37,5.038c-1.27,2.663-1.05,6.418-1.22,9.275
		c-0.19,3.188-0.631,6.406-0.694,9.596c-0.053,2.716,0.171,5.551,2.498,7.291c1.78,1.331,4.745,1.533,5.494,3.989
		c0.629,2.066-0.128,5.91-0.292,8.08c-0.23,3.061-1.353,4.379-3.55,6.415c-4.295,3.979-4.595,9.976-4.888,15.51
		c-0.137,2.584-0.599,5.452,0.273,7.942c0.912,2.602,3.169,4.056,4.696,6.215c3.035,4.29,0.348,10.382-2.991,13.561
		c-1.998,1.903-3.891,3.606-4.838,6.277c-1.022,2.882-1.187,6.109-1.732,9.103c-0.562,3.087-1.659,6.864-0.527,9.94
		c0.94,2.555,3.746,3.685,4.816,5.99c0.951,2.048-0.225,5.299-0.539,7.428c-0.54,3.651-3.068,4.787-5.021,7.686
		c-3.398,5.045-3.876,12.797-4.65,18.679c-0.356,2.698-0.802,5.79,1.021,8.047c1.253,1.551,4.391,2.262,5.031,4.095
		c1.915,5.491-5.007,8.215-8.089,10.74c-4.903,4.017-4.861,13.051-5.842,18.826c-0.506,2.982-1.433,6.109-0.616,9.116
		c0.898,3.308,3.438,5.452,5.517,7.976c5.116,6.211-2.93,8.781-6.704,11.964c-4.82,4.065-5.466,12.986-5.859,18.854
		c-0.241,3.608,0.547,6.549,3.159,9.115c2.641,2.595,3.577,3.869,2.808,7.715c-0.506,2.532-0.85,4.553-3.236,5.819
		c-2.486,1.32-5.06,1.781-6.832,4.179c-1.769,2.392-2.48,5.787-3.348,8.592c-1.054,3.405-2.166,7.23-1.363,10.811
		c-0.055,1.4,1.979,6.34,2.951,8.776c1.163,2.914,2.127,5.791-0.087,8.475c-1.801,2.183-4.76,3.357-6.882,5.208
		C686.395,506.499,684.345,509.492,682.476,512.482z M666.702,592.879c-0.448,4.284-4.512,8.08-8.515,9.225
		c-4.762,1.362-8.855-1.28-6.645-6.473c1.32-3.104,4.568-8.675,7.815-9.96C663.803,583.911,667.09,588.94,666.702,592.879z
		 M627.768,514.22c0.64-0.873,2.21-0.991,3.117-1.469c1.463-0.772,2.573-1.775,3.311-3.243c1.505-2.993,1.465-6.972,1.483-10.237
		c0.014-2.34,0.331-4.696,0.265-7.031c-0.035-1.242-0.104-2.551-0.661-3.685c-0.302-0.615-2.086-2.413-1.527-1.6
		c-2.135-2.313-3.752-2.131-3.862-5.507c-0.072-2.2-0.752-4.381,1.337-5.64c2.575-1.553,4.715-1.42,5.948-4.676
		c1.018-2.69,0.748-5.817,0.593-8.623c-0.17-3.096,0.169-6.354-0.371-9.408c-0.676-3.822-3.028-4.336-5.114-7.057
		c-1.315-1.715-1.732-6.128-1.034-8.191c0.793-2.345,3.776-2.791,5.438-4.455c2.423-2.427,2.401-6.344,2.436-9.551
		c0.034-3.15,0.239-6.341,0.185-9.487c-0.06-3.462-0.904-5.48-3.496-7.704c-2.393-2.054-3.442-3.079-3.505-6.335
		c-0.072-3.756,2.02-4.254,4.387-6.852c2.541-2.789,2.521-6.025,2.343-9.612c-0.278-5.624,1.648-13.63-1.768-18.548
		c-1.784-2.57-4.674-3.175-4.529-6.723c0.113-2.774,2.368-2.733,4.421-4.125c4.855-3.291,4.079-10.108,3.708-15.2
		c-0.22-3.022,0.15-6.417-0.626-9.346c-0.883-3.337-3.808-4.623-5.644-7.262c-1.156-1.66-1.998-5.416-1.443-7.41
		c0.595-2.135,3.357-2.473,4.661-4.371c1.393-2.025,1.133-5.059,1.338-7.409c0.262-2.999,0.52-6.025,0.304-9.036
		c-0.188-2.627-0.695-5.371-2.192-7.592c-1.55-2.301-3.613-3.156-4.057-6.025c-0.447-2.886-0.313-3.841,2.176-5.333
		c2.902-1.74,5.137-3.447,5.26-7.045c0.115-3.349-0.211-6.82-0.27-10.179c-0.062-3.501,0.071-7.975-1.946-11.006
		c-1.912-2.874-5.514-4.31-5.914-8.07c-0.385-3.609,2.981-3.245,5.352-4.759c4.935-3.15,3.089-12.761,3.045-17.854
		c-0.023-2.684-0.075-6.28-2.193-8.273c-1.23-1.157-2.756-1.074-4.19-1.766c-2.085-1.007-1.701-1.884-1.627-4.096
		c0.052-1.567-0.277-3.603,0.131-5.122c0.498-1.852,1.94-2.487,3.268-3.72c3.21-2.984,2.333-6.384,1.921-10.37
		c15.683,0.778,31.375-0.226,47.063-0.22c-0.214,1.677,0.165,3.457-0.739,4.963c-0.999,1.664-3.074,2.535-4.286,4.056
		c-1.122,1.407-1.72,3.057-2.022,4.814c-0.183,1.064-0.217,2.157-0.271,3.233c-0.023,0.468-0.418,3.594,0.106,1.578
		c-0.447,2.719-0.83,5.504-0.642,8.265c0.088,1.292,0.269,2.587,0.724,3.806c0.249,0.666,1.725,2.986,1.447,2.308
		c1.241,2.413,4.127,3.255,5.853,5.2c2,2.255,1.085,4.572,0.891,7.342c-0.283,4.044-1.851,5.29-4.417,8.201
		c-2.117,2.403-2.82,5.006-3.233,8.112c-0.925,6.949-2.752,14.667,1.859,20.546c1.981,2.525,4.258,4.577,3.673,8.038
		c-0.643,3.799-3.795,5.01-5.989,7.767c-1.779,2.235-2.119,4.783-2.433,7.538c-0.44,3.862-1.627,8.396-0.989,12.272
		c0.545,3.316,2.954,5.419,4.824,8.016c1.817,2.525,1.205,5.342,0.568,8.354c-1.175,5.562-8.08,7.672-9.478,13.562
		c-1.394,5.874-2.569,14.426,1.67,19.351c2.086,2.423,4.787,3.919,4.746,7.415c-0.044,3.771-2.059,4.591-5.035,6.264
		c-2.863,1.609-5.546,3.333-6.767,6.515c-0.774,2.019-1.073,4.319-1.442,6.434c-0.164,0.941-0.314,1.885-0.444,2.832
		c-0.069,0.504-0.77,4.914-0.198,2.832c-0.761,3.298,0.58,6.086,2.584,8.636c1.695,2.156,4.658,4.386,4.971,7.3
		c0.217,2.018-0.653,5.248-1.084,7.24c-0.693,3.205-3.246,3.89-5.932,5.24c-5.554,2.79-6.043,9.324-7.251,14.844
		c-0.698,3.192-1.174,6.577,0.089,9.704c1.165,2.879,5.071,4.754,5.536,7.759c0.803,5.186-3.818,7.972-7.494,10.043
		c-6.211,3.498-7.181,11.543-8.598,17.986c-0.704,3.198-2,6.405-0.371,9.485c1.235,2.335,4.425,4.434,4.756,7.158
		c0.766,6.306-6.326,5.887-8.845,9.804c-2.307,3.588-3.324,8.452-4.836,12.421c-1.346,3.533-3.337,7.194-2.116,11.027
		c0.863,2.707,4.386,5.956,4.012,8.899c-0.347,2.733-4.035,3.461-6.069,4.544c0.278-2.242,0.174-4.761-0.884-6.811
		c-0.537-1.04-1.248-1.838-2.218-2.483c-0.717-0.477-2.069-0.582-2.527-1.364c-0.778-1.329,0.25-3.834,0.406-5.183
		C627.541,517.616,627.047,515.204,627.768,514.22z M632.97,581.386c5.535-0.527,11.536-2.318,16.967-0.276
		c-1.681,3.082-6.245,7.331-9.998,6.431c-1.871-0.449-3.885-1.733-5.354-2.94C634.165,584.257,631.467,580.938,632.97,581.386z
		 M723.919,551.79c0.162,2.895-1.511,5.909-4.211,7.416c-1.917,1.07-5.51,1.265-7.216-0.09c-2.605-2.068-0.716-5.025,1.351-6.755
		c1.361-1.138,2.844-0.958,4.509-1.423c2.062-0.576,4.134-1.803,5.696-3.258C723.777,549.021,723.845,550.434,723.919,551.79z
		 M727.283,479.866c-7.281,5.893-12.214,21.863-7.098,30.313c0.821,1.356,2.314,2.501,2.385,4.134
		c0.06,1.366-1.622,5.258-2.568,6.164c-1.282,1.228-3.414,1.127-4.957,1.889c-2.098,1.037-3.887,3.069-5.331,4.846
		c-3.306,4.065-4.906,8.062-4.748,13.271c0.11,3.63-1.882,8.331-5.308,9.683c-1.712,0.675-3.485,0.445-5.142,1.476
		c-1.587,0.987-3,2.441-4.263,3.931c0.616-0.867,1.206-1.726,1.781-2.49c1.876-2.492,3.458-4.879,2.188-8.072
		c-0.995-2.503-4.194-4.344-3.097-7.146c1.055-2.696,3.703-4.72,6.058-6.107c2.82-1.661,4.635-3.737,6.575-6.349
		c3.452-4.649,8.384-10.455,5.644-16.529c-1.239-2.746-0.719-2.936,0.472-5.665c1.185-2.718,1.167-5.016,3.827-6.784
		c2.47-1.642,4.188-2.456,5.499-5.297c1.504-3.258,2.275-6.843,2.961-10.347c0.595-3.043,1.439-6.277,1.399-9.391
		c-0.047-3.642-1.924-6.326-2.948-9.673c-0.882-2.879-0.286-6.922,0.589-9.78c0.746-2.437,2.664-2.686,4.535-4.307
		c3.915-3.392,4.478-10.403,5.519-15.174c0.662-3.034,1.209-6.285,0.621-9.379c-0.572-3.015-2.978-5.204-3.555-8.139
		c-0.467-2.376,0.446-6.357,1.273-8.64c0.905-2.499,3.6-3.449,4.986-5.691c3.092-5,2.677-12.799,3.667-18.46
		c0.511-2.922,1.126-5.957,0.018-8.815c-1.019-2.627-3.811-4.253-4.739-6.797c-2.246-6.163,4.49-7.838,6.478-12.228
		c1.197-2.644,1.266-5.652,1.709-8.474c0.61-3.892,1.606-7.716,2.206-11.611c0.528-3.431,0.028-5.533-2.12-8.22
		c-2.222-2.78-2.342-4.897-1.774-8.418c0.565-3.502,3.447-4.014,5.464-6.698c1.894-2.52,2.401-5.576,2.908-8.607
		c0.948-5.675,4.635-14.459,1.037-19.75c-0.874-1.286-2.39-2.19-3.01-3.653c-0.606-1.43-0.198-2.961-0.069-4.461
		c0.325-3.777,0.552-5.225,2.694-8.122c2.009-2.718,2.282-6.152,2.71-9.395c0.306-2.322,0.594-4.647,0.823-6.977
		c0.092-0.932,0.175-1.864,0.247-2.797c0.029-0.384,0.551-3.696,0.004-2.367c1.24-5.047-3.674-6.521-4.959-10.56
		c-1.141-3.586-0.246-8.742,2.523-11.216c3.864-3.454,4.317-5.94,4.655-11.011c0.293-4.399,0.748-8.806,1.161-13.196
		c0.393-4.176,0.361-6.649-3.363-9.038c-3.457-2.217-4.838-4.49-3.534-8.767c0.496-1.627-0.094-1.546,2.012-1.788
		c1.535-0.176,3.067-0.149,4.606-0.356c5.79-0.777,11.585-1.481,17.392-2.122c-0.678,5.049-2.765,13.597,0.29,18.201
		c1.276,1.923,4.323,2.672,4.958,4.878c0.386,1.343-0.029,5.873-0.448,7.235c-0.68,2.213-3.48,3.239-4.873,5.045
		c-1.731,2.246-2.601,5.051-3.157,7.794c-1.011,4.989-2.137,11.58-1.142,16.621c0.585,2.964,2.156,3.592,4.335,5.293
		c2.152,1.68,1.855,3.481,1.434,6.03c-0.439,2.648-0.731,5.035-2.508,7.149c-2.084,2.479-4.24,4.513-5.604,7.533
		c-2.214,4.899-3.16,11.792-2.867,17.138c0.158,2.891,0.955,5.166,2.739,7.435c2.364,3.007,1.815,4.31,1.333,7.939
		c-0.406,3.059-0.506,4.24-3.302,5.833c-2.946,1.679-4.109,3.916-5.102,7.126c-1.677,5.423-4.129,14.034-1.179,19.364
		c1.13,2.042,4.017,3.586,4.577,5.9c0.444,1.832-0.474,6.716-1.246,8.381c-0.92,1.983-3.376,2.977-5.032,4.205
		c-2.438,1.808-3.426,4.448-4.32,7.256c-1.664,5.223-3.576,13.357-0.688,18.436c1.409,2.479,2.542,3.263,1.956,6.219
		c-0.522,2.637-0.603,8.101-2.482,10.105c-1.662,1.773-4.315,1.412-5.937,3.706c-1.662,2.351-2.375,5.584-3.126,8.322
		c-1.619,5.903-2.576,12.157,1.236,17.394c0.751,1.032,1.868,1.933,2.144,3.207c0.293,1.353-0.618,3.551-0.862,4.928
		c-0.409,2.311-0.395,6.329-2.146,8.04c-1.141,1.115-3.021,1.31-4.332,2.186c-1.321,0.883-2.313,2.171-3.169,3.486
		c-1.988,3.054-3.242,6.604-4.052,10.138c-0.793,3.458-1.656,7.625-0.275,11.039c1.022,2.527,3.685,4.066,3.907,6.885
		c0.191,2.42-0.766,5.521-1.615,7.757C731.678,477.793,729.611,477.981,727.283,479.866z M743.299,526.971
		c-1.404,1.472-3.558,0.764-5.401,1.443c-3.177,1.169-5.767,4.166-7.95,6.621c0.597-3.313-0.818-6.001-0.869-9.169
		c-0.041-2.541,2.046-5.386,3.203-7.577c1.449-2.742,2.015-2.613,4.827-3.259c2.503-0.575,4.716-2.187,5.76-4.581
		c0.523,1.479,3.211,2.654,2.74,4.456C745.61,518.193,745.737,524.416,743.299,526.971z M758.833,469.823
		c-0.528,2.61-0.205,7.015-2.189,9.069c-0.989,1.023-2.618,0.788-3.881,1.301c-2.065,0.839-4.09,2.716-5.537,4.385
		c-0.688-2.71-2.343-3.742-1.826-6.662c0.458-2.586,0.89-5.453,1.553-8.011c0.595-2.296,1.491-2.292,3.488-3.573
		c2.692-1.728,4.28-4.174,5.395-7.141C756.079,462.873,759.549,466.193,758.833,469.823z M804.006,185.229
		c-0.194,2.555-0.048,5.136-0.374,7.682c-0.383,3.001-1.56,4.158-3.432,6.316c-3.35,3.862-2.762,9.295-3.51,14.036
		c-0.609,3.856-2.538,9.191-0.648,12.932c0.93,1.841,2.985,2.698,4.084,4.394c1.372,2.117,0.836,4.77,0.494,7.121
		c-0.268,1.845-0.122,4.19-0.754,5.937c-0.719,1.991-3.042,2.893-4.513,4.287c-3.712,3.518-3.5,9.819-3.754,14.544
		c-0.26,4.825-2.109,12.61,1.793,16.276c1.749,1.644,2.993,2.432,2.815,5.028c-0.14,2.04-0.352,4.848-1.229,6.704
		c-0.901,1.907-2.924,3.324-4.237,4.965c-1.753,2.19-2.792,4.397-3.415,7.119c-1.208,5.273-2.513,10.963-2.085,16.402
		c0.195,2.479,0.825,4.752,2.034,6.915c1.192,2.131,2.406,3.525,2.048,6.042c-0.286,2.015-0.817,3.966-2.372,5.349
		c-1.822,1.62-4.008,2.537-5.438,4.628c-2.337,3.418-2.811,8.587-3.754,12.561c-0.999,4.21-2.112,9.076-0.709,13.329
		c0.671,2.033,2.237,3.087,3.229,4.832c1.192,2.098,0.266,4.573-0.159,6.835c-0.415,2.211-0.407,4.558-2.242,6.033
		c-1.694,1.361-3.572,2.003-4.986,3.811c-3.048,3.898-3.942,9.153-4.692,13.91c-0.918,5.818-0.606,9.541,2.25,14.703
		c1.466,2.648,0.597,4.578-0.174,7.415c-0.522,1.918-0.55,4.417-1.552,6.134c-1.261,2.16-4.041,2.279-5.957,3.691
		c-2.287,1.686-4.268,4.594-5.128,7.277c0.073-2.005-0.882-3.535-1.368-5.372c-0.466-1.758-0.112-3.34,0.183-5.1
		c0.61-3.644,0.19-8.77,3.313-11.148c3.411-2.597,5.04-4.711,6.184-8.932c1.243-4.583,2.358-9.495,1.689-14.265
		c-0.559-3.981-3.844-7.04-3.057-11.074c0.662-3.393,0.547-7.12,3.93-8.822c2.864-1.441,4.875-2.853,5.882-6.041
		c1.478-4.68,2.006-10.217,2.439-15.103c0.305-3.432-0.142-6.432-2.205-9.272c-1.002-1.379-1.879-1.995-2.025-3.773
		c-0.151-1.841,0.629-3.825,0.948-5.621c0.683-3.85,1.599-4.896,4.334-7.657c2.897-2.924,3.858-6.996,4.779-10.883
		c0.893-3.77,1.92-8.011,1.44-11.908c-0.221-1.8-0.778-3.461-2.02-4.813c-0.923-1.005-2.271-1.538-2.614-2.955
		c-0.446-1.839,0.769-5.406,1.539-7.061c1.609-3.458,5.32-4.415,6.569-8.406c1.238-3.96,1.923-8.35,2.658-12.435
		c0.809-4.491,1.528-9.577-0.932-13.681c-0.982-1.638-2.497-2.855-3.54-4.417c-1.048-1.57-0.825-2.618-0.699-4.429
		c0.119-1.704-0.185-3.989,0.605-5.559c0.864-1.714,2.632-2.321,4.175-3.319c-1.266,0.648,0.955-1.024,1.402-1.666
		c0.69-0.992,1.115-2.142,1.471-3.288c0.793-2.554,1.012-5.252,1.243-7.903c0.276-3.179,0.763-6.431,0.577-9.626
		c-0.228-3.907-2.118-4.744-4.181-7.64c-1.398-1.964-0.827-4.226-0.761-6.536c0.104-3.604,0.712-4.993,3.349-7.447
		c4.905-4.563,4.246-11.657,4.795-17.887C798.193,181.064,804.886,182.404,804.006,185.229z M424,386.757
		c-1.158-0.814-2.605-1.245-3.37-2.483c-1.243-2.01-1.375-5.835-1.682-8.102c-0.314-2.317,0.139-3.005,1.553-4.787
		c1.654-2.085,2.545-4.111,2.589-6.819c0.088-5.414-1.664-11.149-2.747-16.414c-0.467-2.267-0.912-4.564-2.301-6.473
		c-1.533-2.107-3.959-2.872-5.69-4.703c-3.319-3.509-2.041-7.62,0.115-11.168c2.681-4.412,2.373-9.564,1.603-14.504
		c-0.716-4.596-1.238-10.42-4.004-14.29c-1.362-1.905-3.318-3.366-4.612-5.315c-1.408-2.118-1.597-4.689-1.823-7.161
		c-0.412-4.504,3.867-5.687,4.625-10.015c0.835-4.767,0.137-10.621-0.178-15.42c-0.164-2.505-0.456-5.082-1.28-7.467
		c-0.919-2.665-2.638-3.831-4.764-5.471c-3.384-2.61-3.303-8.252-3.266-12.299c0.027-2.932,2.037-4.059,3.672-6.225
		c1.826-2.416,1.593-4.906,1.357-7.811c-0.447-5.507-0.659-12.26-2.682-17.475c-0.927-2.39-2.992-3.734-4.112-5.908
		c-1.172-2.276-0.889-5.425-1.182-7.917c-0.28-2.376-0.468-4.286,1.474-5.92c1.521-1.279,4.234-1.931,4.623-4.213
		c0.487,5.532-0.358,12.288,3.609,16.781c2.66,3.014,4.365,3.491,4.533,7.895c0.093,2.454,0.7,5.1-0.763,7.198
		c-1.869,2.683-3.692,4.245-4.06,7.751c-0.32,3.053,0.183,6.22,0.437,9.264c0.212,2.54,0.421,5.105,1.095,7.573
		c0.341,1.249,0.77,2.546,1.482,3.642c0.508,0.782,2.725,2.486,1.561,1.89c1.623,1.051,3.303,1.652,4.11,3.521
		c0.666,1.541,0.41,3.481,0.661,5.118c0.223,1.457,0.675,2.653,0.115,4.079c-0.676,1.724-2.727,2.929-3.799,4.383
		c-2.378,3.226-2.212,7.369-1.704,11.156c0.522,3.885,1.037,7.873,1.786,11.721c0.757,3.89,1.976,6.924,5.129,9.408
		c2.603,2.051,3.34,4.589,3.859,7.817c0.551,3.436-1.787,3.637-3.339,6.295c-1.847,3.165-1.004,7.509-0.616,10.949
		c0.437,3.876,1.073,7.932,2.708,11.509c1.555,3.4,5.484,4.728,6.756,8.041c1.041,2.709,2.182,8.186,1.103,10.881
		c-1.399,3.494-4.148,4.532-4.063,8.83c0.076,3.83,0.929,7.905,1.452,11.713c0.463,3.373,1.155,7.18,3.642,9.714
		c2.475,2.522,5.696,2.231,6.539,6.146c0.34,1.58,0.718,3.345,0.863,4.957c0.207,2.297-0.748,3.784-1.573,5.851
		c-1.393,3.487-1.907,8.268-1.452,12.96c-0.427-2.461-1.1-4.912-1.59-7.093C429.408,393.926,427.858,389.471,424,386.757z
		 M436.41,434.797c-1.759-1.311-3.981-1.379-5.218-3.358c-1.097-1.755-1.296-4.256-1.918-6.223c-0.66-2.089-1.463-4.078-0.636-6.217
		c0.906-2.343,2.929-3.879,3.484-6.441c0.323-1.489,0.329-3.093,0.179-4.728c0.722,4.202,2.27,8.135,4.73,10.756
		c1.147,1.221,3.065,1.83,4.03,3.142c1.177,1.602,1.134,4.358,1.455,6.26c0.39,2.322,1.292,5.044,1.182,7.396
		c-0.114,2.451-1.771,4.537-1.679,7.053C441.105,439.584,438.794,436.573,436.41,434.797z M447.324,480.416
		c-1.764-0.918-3.408-0.859-4.564-2.647c-1.156-1.789-1.637-4.593-1.934-6.635c-0.683-4.699,2.705-7.506,2.998-11.941
		c1.115,2.966,2.702,5.412,5.395,7.14c1.989,1.277,2.89,1.276,3.482,3.562c0.664,2.563,1.1,5.432,1.559,8.023
		c0.518,2.92-1.138,3.952-1.826,6.662C451.013,482.937,449.26,481.423,447.324,480.416z M469.794,529.586
		c-0.443,1.787-0.398,3.641-0.083,5.449c-2.014-2.265-4.294-5.064-7.152-6.291c-2.083-0.894-4.488-0.382-6.024-2.196
		c-1.68-1.984-1.882-5.776-2.183-8.229c-0.189-1.542-0.668-3.406,0.079-4.869c0.596-1.168,1.918-1.702,2.36-3.001
		c1.196,2.745,3.503,4.019,6.294,4.482c3.326,0.551,3.89,1.462,5.184,4.61c0.787,1.915,2.696,4.408,2.625,6.422
		C470.85,527.196,470.087,528.405,469.794,529.586z M470.439,478.463c-2.29-1.447-2.853-0.854-3.464-3.696
		c-0.494-2.296-2.049-5.967-1.614-8.315c0.474-2.559,3.309-4.367,4.054-7.019c0.788-2.808,0.62-5.846,0.11-8.685
		c-0.907-5.056-3.118-11.66-7.558-14.691c-1.681-1.148-4.313-1.678-5.419-3.49c-1.287-2.108-1.168-6.501-1.662-8.942
		c-0.706-3.484,0.011-4.012,1.906-6.878c1.763-2.667,2.329-5.826,2.233-8.984c-0.153-5.035-1.502-13.33-5.093-17.091
		c-1.651-1.73-4.23-1.501-5.686-3.244c-1.378-1.649-1.377-4.806-1.644-6.82c-0.254-1.92-1.233-4.374-0.51-6.189
		c1.052-2.641,3.005-3.813,3.377-6.952c0.636-5.361-0.87-11.872-2.798-16.873c-1.061-2.752-2.504-4.456-5.001-5.977
		c-2.836-1.728-3.884-3.018-4.283-6.419c-0.241-2.055-0.759-4.088,0.292-5.906c1.616-2.792,4.079-4.61,4.74-7.956
		c0.673-3.413-0.102-7.092-0.763-10.446c-0.597-3.028-1.022-6.317-2.454-9.09c-1.387-2.686-3.96-3.05-5.786-5.139
		c-1.229-1.406-1.571-3.728-1.913-5.527c-0.425-2.233-0.643-3.865,0.663-5.788c1.947-2.865,3.742-4.539,3.726-8.229
		c-0.027-5.78-0.064-13.584-2.989-18.73c-1.555-2.737-4.094-4.699-5.987-7.145c-1.541-1.992-1.655-4.727-1.957-7.17
		c-0.472-3.826,0.694-4.138,3.211-6.541c2.542-2.427,2.736-5.303,2.678-8.718c-0.067-3.944-0.745-7.89-1.38-11.776
		c-0.489-2.99-1.057-6.105-3.221-8.365c-1.979-2.067-4.504-2.89-4.842-6.029c-0.278-2.572-0.586-5.968,1.398-7.872
		c1.113-1.068,2.697-1.459,3.61-2.771c0.972-1.399,0.912-3.198,0.919-4.815c0.019-4.497-0.401-9.027-0.998-13.479
		c5.574,0.615,11.131,1.266,16.694,1.957c3.064,0.38,7.01-0.419,7.376,3.185c0.165,1.628,0.589,4.011-0.271,5.472
		c-0.907,1.54-3.363,2.208-4.646,3.399c-2.891,2.687-2.14,6.514-1.852,10.071c0.403,4.983,0.514,10.055,1.089,15.015
		c0.498,4.298,3.032,4.871,5.606,7.769c1.822,2.052,2.426,8.159,1.46,10.767c-1.441,3.892-6.206,5.387-4.961,10.419
		c-0.499-1.211-0.092,0.821-0.089,1.005c0.014,0.94,0.15,1.92,0.241,2.86c0.184,1.906,0.42,3.807,0.641,5.709
		c0.373,3.21,0.216,7.101,1.704,10.044c1.138,2.252,3.186,3.008,3.61,5.584c0.409,2.492,1.299,6.247,0.312,8.644
		c-0.902,2.189-3.21,3.392-3.927,5.737c-1.088,3.561,0.441,8.081,1.044,11.617c0.911,5.339,0.791,11.573,4.671,15.82
		c1.459,1.597,3.571,2.468,4.327,4.586c0.933,2.61,1.084,6.219-0.538,8.496c-1.812,2.546-3.507,4.05-3.342,7.457
		c0.165,3.389,1.217,6.886,1.859,10.213c0.646,3.348,0.878,6.879,1.715,10.174c0.795,3.13,2.717,4.374,5.04,6.326
		c1.684,1.416,2.07,3.058,2.182,5.31c0.149,2.992-1.946,4.306-3.544,6.608c-3.758,5.414-1.116,12.705-0.121,18.654
		c0.461,2.755,0.637,5.67,1.349,8.374c0.822,3.121,2.783,4.171,4.889,6.307c3.336,3.382,3.171,10.081,1.007,13.913
		c-3.584,6.345-1.529,12.748-0.079,19.516c0.536,2.505,0.873,5.358,2.186,7.611c1.345,2.306,3.709,2.816,5.439,4.58
		c1.55,1.581,1.446,4.389,1.77,6.536c0.598,3.954-0.731,6.161-2.026,9.772c-2.487,6.93,0.556,15.268,2.426,22.062
		c0.797,2.896,1.764,5.333,4.335,6.993c2.721,1.756,4.239,2.567,5.272,5.822c1.045,3.295,2.124,5.006,0.882,8.342
		c-1.325,3.556-0.397,6.23,1.501,9.419c1.987,3.337,4.182,6.946,6.813,9.818c2.13,2.326,5.347,2.795,7.481,5.053
		c1.203,1.274,3.251,4.031,2.97,5.726c-0.254,1.535-2.244,3.326-2.912,4.802c-0.666,1.471-1.029,2.897-0.725,4.505
		c0.331,1.757,1.442,3.523,2.756,5.177c-0.651-0.68-1.329-1.33-2.079-1.886c-2.203-1.634-4.746-0.864-6.873-2.147
		c-1.573-0.949-2.989-3.614-3.715-5.237c-0.963-2.152-0.289-3.847-0.296-6.083c-0.015-5.162-4.108-10.657-7.648-14.091
		c-0.887-0.86-1.881-1.86-3.014-2.407c-1.121-0.542-2.432-0.378-3.529-0.879c-1.762-0.805-2.057-2.659-2.795-4.33
		c-0.787-1.783-1.568-2.618-0.58-4.354c1.161-2.042,2.781-3.201,3.465-5.633C483.402,497.924,478.366,483.487,470.439,478.463z
		 M470.646,208.617c-0.147-3.091-0.149-6.188-0.43-9.272c-0.204-2.238-0.041-5.024-1.224-6.981
		c-1.168-1.933-3.524-2.487-4.854-4.226c-1.584-2.071-0.858-4.85-0.969-7.25c10.899,0.792,21.776,1.436,32.699,1.781
		c3.171,0.1,5.862-0.811,5.03,3.47c-0.613,3.155-3.606,3.558-5.151,6.036c-2.159,3.462-0.188,9.273,0.197,12.989
		c0.412,3.969,0.037,10.06,2.18,13.596c1.565,2.584,3.811,2.949,4.134,6.25c0.376,3.839,0.585,5.541-2.128,8.271
		c-6.46,6.502-4.899,14.741-3.589,23.149c0.633,4.063,1.12,7.357,4.419,9.873c2.895,2.208,3.17,4.45,2.715,8.128
		c-0.488,3.947-3.456,6.901-4.573,10.71c-1.387,4.728,0.104,10.017,0.69,14.792c0.482,3.922,0.175,7.557,3.481,10.187
		c3.022,2.404,3.987,3.859,3.586,8.048c-0.306,3.199-3.141,5.419-4.675,8.128c-2.515,4.443-1.51,8.329-0.408,13.05
		c0.819,3.51,0.35,8.187,2.279,11.254c1.881,2.99,5.379,3.754,6.476,7.367c1.046,3.443,0.719,5.42-1.378,8.071
		c-2.891,3.655-3.299,7.822-2.661,12.306c0.542,3.81,1.206,7.657,1.831,11.455c0.729,4.438,3.297,5.774,6.737,8.239
		c2.948,2.112,2.993,4.411,3.913,7.672c0.337,1.197,0.992,2.765,0.666,4.042c-0.401,1.572-2.594,3.089-3.609,4.379
		c-3.012,3.824-3.095,7.238-1.925,11.879c0.926,3.674,1.5,7.992,3.032,11.464c1.456,3.299,4.909,3.937,6.93,6.649
		c1.704,2.287,3.239,8.074,1.883,10.738c-0.895,1.759-2.66,2.914-3.473,4.742c-0.844,1.896-0.568,3.656-0.087,5.588
		c1.333,5.351,2.866,10.793,4.628,16.02c0.725,2.15,1.342,4.814,3.064,6.395c1.244,1.141,3.001,1.431,4.34,2.417
		c1.901,1.399,4.268,5.056,3.294,7.419c-0.544,1.32-2.685,2.748-3.59,3.94c-1.615,2.127-2.333,3.842-1.664,6.491
		c1.309,5.181,3.619,11.334,6.252,15.98c1.076,1.9,2.444,3.689,4.378,4.781c1.815,1.025,3.666,0.915,4.723,2.963
		c0.708,1.371,1.87,4.147,1.826,5.667c-0.06,2.083-2.019,4.144-2.857,5.946c-2.158,4.642,0.076,8.805,1.86,13.215
		c1.417,3.504,2.74,9.901,6.466,11.72c-6.12,0.159-7.271-6.886-11.605-10.023c-2.025-1.466-4.581-0.736-6.289-2.539
		c-1.461-1.542-1.688-3.543-0.933-5.379c1.238-3.007,2.081-4.662,0.029-7.649c-1.44-2.096-3.275-4.236-5.066-6.029
		c-1.524-1.525-3.181-2.565-5.258-3.144c-2.551-0.711-5.303-0.182-7.207-2.3c-4.081-4.539,1.633-10.41,0.036-15.555
		c-1.474-4.749-5.959-10.062-10.054-12.724c-4.206-2.734-6.957-4.13-6.034-9.625c0.371-2.208,1.16-4.346,1.931-6.44
		c0.411-1.114,0.863-2.215,1.246-3.339c0.107-0.314,0.63-2.623,0.667-1.688c1.107-4.936-1.346-10.589-2.819-15.229
		c-0.71-2.238-1.476-4.512-3.451-5.961c-2.048-1.502-5.253-1.358-6.998-3.268c-2.221-2.432-2.618-8.116-0.814-10.753
		c1.226-1.791,3.14-3.022,4.281-4.886c1.425-2.33,1.339-5.252,1.095-7.891c-0.444-4.805-1.296-12.271-4.676-15.956
		c-2.93-3.195-10.568-4.553-9.552-10.19c0.396-2.2,2.686-3.89,4.005-5.548c2.082-2.619,3.464-5.321,3.47-8.727
		c0.01-5.597-1.897-11.719-3.125-17.159c-0.507-2.245-0.906-4.76-2.505-6.51c-1.989-2.177-5.055-2.984-7.222-4.918
		c-1.484-1.324-2.372-3.622-2.062-5.66c0.37-2.434,2.766-2.842,4.282-4.546c3.327-3.739,1.327-9.658,0.79-14.081
		c-0.675-5.554-1.513-11.084-5.44-15.342c-1.988-2.156-2.772-3.45-3.319-6.369c-0.337-1.798-1.517-4.521-0.817-6.302
		c0.791-2.013,3.518-3.321,4.617-5.284c1.523-2.722,0.865-6.079,0.355-8.997c-0.975-5.58-1.137-11.406-5.103-15.785
		c-1.506-1.663-3.696-3.095-4.841-5.044c-1.061-1.807-1.353-5.506-1.038-7.604c0.414-2.762,3.051-4.319,4.528-6.528
		c1.775-2.652,1.775-5.347,1.525-8.444c-0.549-6.795-0.863-13.489-6.116-18.212c-2.349-2.111-2.422-3.963-2.42-7.022
		c0.002-2.189-1.024-5.557,0.375-7.391c1.692-2.218,4.846-2.204,6.299-4.944C471.245,214.586,470.779,211.407,470.646,208.617z
		 M521.338,214.156c0.579-1.325,0.783-2.82,0.881-4.247c0.189-2.761-0.19-5.547-0.638-8.265c0.063,0.244,0.127,0.487,0.19,0.731
		c-0.169-3.854-0.082-7.728-2.779-10.799c-1.05-1.196-2.604-1.967-3.496-3.294c-1.061-1.577-0.896-3.47-1.127-5.283
		c15.687-0.009,31.38,0.998,47.063,0.22c-0.357,3.42-1.381,6.951,1.239,9.727c2.15,2.278,4.374,2.302,4.224,5.815
		c-0.084,1.965,0.662,5.68-0.742,7.093c-2.309,2.325-5.499,1.112-6.739,4.976c-1.054,3.286-0.571,7.677-0.627,11.101
		c-0.049,3.044-0.432,6.867,0.68,9.766c1.718,4.481,11.273,4.001,6.724,10.439c-1.615,2.286-4.317,3.565-5.567,6.171
		c-1.462,3.05-0.896,7.018-1.154,10.304c-0.265,3.372-0.944,7.022-0.457,10.402c0.519,3.601,2.833,4.748,5.558,6.759
		c1.921,1.418,2.349,3.017,1.821,5.482c-0.636,2.975-3.573,4.305-4.794,7.056c-1.205,2.714-1.041,5.922-1.082,8.822
		c-0.053,3.752-0.624,8.736,0.674,12.329c0.829,2.295,2.785,2.736,4.34,4.264c1.466,1.44,1.012,4.053,0.613,6.123
		c-0.562,2.914-2.506,4.101-4.42,6.147c-2.529,2.703-2.59,5.698-2.692,9.215c-0.16,5.496-2.17,15.126,3.029,18.944
		c1.79,1.315,4.236,1.785,4.815,4.108c0.84,3.366-2.412,4.425-4.096,6.574c-2.063,2.632-1.766,6.028-1.82,9.186
		c-0.051,2.973-0.467,5.916-0.616,8.883c-0.139,2.773-0.281,6.024,1.058,8.564c1.367,2.593,5.068,3.758,5.922,6.497
		c2.082,6.678-5.596,8.136-6.752,13.578c-0.632,2.978-0.095,6.09,0.006,9.092c0.1,2.961-0.187,6.026,0.532,8.933
		c0.918,3.712,2.91,4.216,5.757,6.084c2.443,1.603,2.034,3.803,1.674,6.532c-0.394,2.985-1.737,4.368-3.73,6.518
		c-2.164,2.333-2.496,4.481-2.795,7.547c-0.455,4.654-2.253,13.705,1.691,17.354c2.21,2.045,5.334,1.327,5.94,4.777
		c0.234,1.328,0.479,3.568,0.05,4.842c-0.673,1.999-2.489,2.272-3.792,3.734c0.773-1.124-1.183,0.951-1.359,1.24
		c-0.57,0.94-0.703,2.095-0.808,3.162c-0.198,2.009,0.167,4.039,0.243,6.045c0.165,4.323-0.84,10.943,2.867,14.09
		c1.537,1.304,4.129,1.467,5.075,3.428c0.771,1.597,0.726,5.473,0.691,7.283c-0.059,3.024-2.428,2.408-4.085,4.497
		c-1.546,1.951-1.784,5.627-1.488,8.004c-1.805-0.961-4.891-1.606-5.979-3.494c-1.234-2.142,0.95-4.83,2.053-6.609
		c1.733-2.796,2.594-4.98,1.769-8.334c-0.918-3.736-2.467-7.462-3.817-11.061c-1.004-2.678-1.703-6.748-3.788-8.787
		c-1.798-1.758-4.848-1.297-6.526-3.179c-4.52-5.07,0.816-8.061,3.127-12.234c1.599-2.888,0.767-5.896-0.057-8.9
		c-0.99-3.606-1.993-7.217-3.169-10.767c-1.001-3.023-1.836-5.619-4.563-7.476c-2.348-1.599-5.872-2.392-7.18-5.145
		c-1.024-2.156-1.506-4.993-0.285-7.054c1.675-2.828,4.221-4.582,5.013-7.983c0.769-3.307-0.136-6.864-0.989-10.069
		c-0.842-3.163-1.494-6.958-3.471-9.644c-1.763-2.394-4.396-3.448-6.797-5.032c-2.689-1.774-2.628-5.048-3.145-8.049
		c-1.231-7.148,8.952-10.48,7.154-18.272c0.512,1.862,0.094-0.287,0.074-0.635c-0.062-1.139-0.273-2.288-0.445-3.415
		c-0.312-2.037-0.67-4.091-1.163-6.092c-0.673-2.733-1.704-4.852-4.038-6.517c-3.926-2.801-11.283-5.386-7.113-11.61
		c1.655-2.47,4.449-4.055,5.701-6.813c1.457-3.211,0.614-6.792,0.214-10.137c-0.37-3.087,0.036-6.693-1.46-9.519
		c-1.608-3.039-4.903-4.482-7.051-7.023c-1.926-2.278-2.649-6.196-2.269-9.168c0.42-3.289,3.579-4.863,5.112-7.527
		c1.775-3.086,0.931-6.803,0.534-10.125c-0.414-3.466-0.103-7.82-1.692-10.999c-2.321-4.644-9.661-6.448-7.202-13.111
		c1.122-3.039,4.618-4.983,5.829-8.071c1.259-3.209,0.449-6.699,0.096-10.002c-0.414-3.875,0.178-8.513-1.554-12.097
		c-1.539-3.186-4.993-4.823-6.265-8.208c-0.998-2.656-1.678-6.885-0.06-9.409c1.616-2.52,5.011-3.396,6.411-6.114
		C519.704,216.873,521.132,214.627,521.338,214.156z M566.945,582.275c-0.121,1.996-6.436,5.484-8.229,5.536
		c-3.339,0.096-7.507-3.976-8.992-6.701C552.023,580.288,567.094,579.818,566.945,582.275z M548.732,599.289
		c-1.73,8.47-20.043-1.578-15.077-11.096C538.359,579.179,549.298,593.495,548.732,599.289z M514.871,563.973
		c-0.614-2.31-2.375-4.332-3.783-6.224c-0.357-0.479-0.72-0.961-1.093-1.439c0.703,0.772,1.385,1.499,1.97,2.163
		c2.975,3.378,6.416,3.126,10.663,3.571c-0.602,2.212-0.455,4.963-1.593,6.995c-1.473,2.63-3.643,1.517-6.171,2.193
		C514.994,568.842,515.498,566.335,514.871,563.973z M475.61,547.68c1.984,1.848,4.405,3.032,7.044,3.491
		c2.138,0.372,2.648,0.361,3.912,2.049c1.671,2.231,3.436,4.719-0.021,6.597c-1.534,0.833-5.448,0.455-6.861-0.521
		c-1.099-0.759-3.479-3.575-3.962-4.721C474.824,552.447,476.062,549.897,475.61,547.68z M473.438,590.43
		c0.122-0.302,1.293-3.56,0.64-3.666c2.139-0.173,4.665-1.058,6.794-0.412c2.078,0.631,3.727,2.501,5.624,3.549
		c2.347,1.296,4.67,2.054,7.36,2.171c3.34,0.145,4.562,1.034,6.89,3.302c1.372,1.336,2.025,1.891,2.264,3.831
		c0.241,1.954,0.35,3.54,1.055,5.444c1.029,2.779,3.183,7.833,6.575,8.405c-6.378-0.136-12.742-0.574-19.108-0.957
		c-2.938-0.177-5.877-0.348-8.818-0.47c-2.742-0.114-6.789-0.886-9.379-0.042c2.893-4.804-0.231-12.939-3.334-16.956
		C471.592,593.649,472.742,592.147,473.438,590.43z M463.782,637.381c1.238,4.931,1.67,9.959,2,15.017
		c0.143,2.198-0.6,8.601,0.999,10.329c-0.876,0.115-1.755,0.202-2.637,0.261C463.872,654.454,464.399,645.904,463.782,637.381z
		 M469.592,717.072c-0.648-0.022-1.293,0.011-1.935,0.101c-0.383-7.758-0.716-15.517-1.298-23.263
		c-0.262-3.487-0.493-6.977-0.752-10.464c-0.063-0.85-0.792-7.081,2.05-5.016c0.646,0.469,0.645,5.589,0.737,6.27
		c0.443,3.253,0.964,6.496,1.354,9.757c0.899,7.519,1.173,15.094,1.652,22.646C470.797,717.107,470.195,717.097,469.592,717.072z
		 M476.513,757.043c-1.306,0.06-2.678-0.13-3.949,0.261c-0.391-4.416-0.154-8.859-0.329-13.284c-0.084-2.123-0.3-4.252-0.328-6.376
		c-0.02-1.47,0.35-3.226-0.274-4.608c0.859,0.087,1.709,0.034,2.551-0.161c0.346,4.484,1.084,8.91,1.735,13.356
		c0.524,3.58,0.684,7.362,2.094,10.737C477.515,757.043,477.015,757.068,476.513,757.043z M511.662,803.215
		c-4.327,2.52-8.718,4.914-13.246,7.056c-3.833,1.813-8.261,4.769-12.611,4.96c-5.984,0.263-4.759-7.999-4.922-11.911
		c5.933-0.115,11.867-0.285,17.799-0.441c4.413-0.116,10.222,1.245,14.393-0.476C512.612,802.686,512.141,802.957,511.662,803.215z
		 M575.315,794.016c-1.037,2.039-8.473,0.068-10.81,0.984c3.582-1.673,7.209-3.247,10.821-4.854
		C575.322,791.295,575.872,792.921,575.315,794.016z M574.967,750.293c-1.342,1.17-6.096,0.698-7.767,0.758
		c-3.6,0.13-7.201,0.182-10.801,0.326c-14.452,0.576-28.909,1.09-43.373,1.182c-5.574,0.035-11.273,0.623-16.837,0.265
		c-2.752-0.177-4.957-1.131-5.967-3.837c-1.888-5.055,0.91-10.828-1.094-15.877c14.41,0.964,28.84,1.261,43.276,1.549
		c14.351,0.286,28.738,1.339,43.074,0.145c-0.009,3.679-0.036,7.359-0.029,11.038C575.452,747.032,575.957,749.431,574.967,750.293z
		 M578.113,681.837c-0.363,0.638-1.391,0.632-1.855,1.159c-0.794,0.9-0.746,1.961-0.767,3.084c-0.051,2.671,0.099,5.371,0.092,8.047
		c-0.015,5.899-0.314,11.884,0.106,17.768c0.101,1.411,0.708,4.098-0.325,5.31c-1.087,1.277-4.136,0.784-5.751,0.884
		c-5.987,0.372-11.972,0.775-17.965,1.03c-12.956,0.552-25.913,0.536-38.873,0.122c-6.312-0.201-12.597-0.711-18.893-1.176
		c-1.181-0.087-5.08,0.366-6.095-0.394c-1.34-1.002-0.931-4.882-1.078-6.508c-0.649-7.149-1.481-14.353-2.394-21.474
		c-0.306-2.384-0.566-4.551-0.444-6.94c0.07-1.378,0.706-4.742-0.625-5.78c7.547-0.837,15.164-0.471,22.74-0.585
		c7.986-0.12,15.969-0.336,23.948-0.668c16.067-0.668,32.159,0.42,48.218-0.472C578.14,676.844,578.956,680.353,578.113,681.837z
		 M578.413,657.194c-0.509,1.202-0.161,1.111-1.829,1.367c-8.026,1.233-16.581,0.771-24.688,1.094
		c-8.3,0.33-16.599,0.742-24.907,0.813c-8.022,0.069-15.964,0.231-23.974,0.768c-3.674,0.246-7.361,0.492-11.046,0.42
		c-3.51-0.069-7.18-0.547-10.605,0.471c-0.676-6.378-1.431-12.664-1.732-19.075c-0.138-2.945-0.378-5.896-0.396-8.844
		c-0.011-1.793,0.452-4.454-0.643-6.018c11.101,0.332,22.17,1.845,33.273,2.379c11.355,0.546,22.694,1.464,34.041,2.165
		c5.563,0.344,11.127,0.687,16.689,1.065c2.649,0.18,5.297,0.391,7.948,0.544c1.692,0.097,4.9-0.426,6.505,0.277
		c0.363,0.012,0.724,0.025,1.087,0.037c0.01,0.99,0.021,1.981,0.033,2.971c0.015,1.245,0.034,2.49,0.051,3.734
		c0.037,2.738,0.075,5.477,0.099,8.215C578.337,651.617,579.182,655.376,578.413,657.194z M600.24,139.778
		c-4.661-0.144-9.324-0.103-13.986-0.112l-13.987-0.009l-13.987-0.001l-13.983,0.239c-18.653,0.081-37.287,0.81-55.931,1.419
		c-9.314,0.446-18.644,0.74-27.951,1.337l-13.976,0.781c-4.66,0.256-9.303,0.684-13.961,0.989
		c-18.627,1.288-37.23,2.946-55.805,5.28c18.215-4.404,36.764-7.314,55.324-9.901c18.578-2.536,37.24-4.408,55.933-5.868
		c9.34-0.865,18.704-1.274,28.065-1.829c9.359-0.611,18.73-0.821,28.098-1.187l14.057-0.433l14.06-0.11l14.061-0.102
		c4.687-0.028,9.375-0.105,14.06,0.002l28.112,0.605l7.027,0.156l7.022,0.303c4.681,0.211,9.363,0.382,14.042,0.64l14.037,0.72
		l7.018,0.36l7.01,0.498c9.346,0.658,18.686,1.399,28.021,2.173c4.666,0.403,9.34,0.703,13.998,1.192l13.972,1.486l27.918,3.121
		c4.653,0.505,9.282,1.24,13.92,1.881l13.901,2.01c9.262,1.374,18.517,2.767,27.752,4.285c-9.359-0.465-18.697-1.054-28.028-1.662
		c-9.336-0.556-18.64-1.408-27.977-1.862l-27.982-1.557l-13.978-0.853c-4.657-0.303-9.327-0.416-13.989-0.633
		c-9.329-0.369-18.652-0.771-27.97-1.256l-6.99-0.328l-6.995-0.19l-13.989-0.381c-4.663-0.109-9.323-0.305-13.984-0.461
		l-6.991-0.247l-6.995-0.099L600.24,139.778z M624.01,715.308c-0.037-3.218,0.105-6.472,0.097-9.7
		c-0.017-6.507,0.209-13.067-0.035-19.568c-0.035-0.954,0.001-1.941-0.453-2.817c-0.374-0.721-1.515-1.132-1.784-1.616
		c-0.964-1.735-0.314-4.44-0.325-6.361c16.06,0.892,32.151-0.196,48.218,0.472c7.979,0.332,15.962,0.547,23.947,0.668
		c7.576,0.114,15.193-0.252,22.74,0.585c-1.819,1.42-0.536,8.872-0.766,11.041c-0.745,7.015-1.658,14.014-2.461,21.023
		c-0.185,1.615,0.141,6.383-0.826,7.748c-1.227,1.732-4.839,1.168-6.8,1.297c-7.27,0.479-14.545,0.876-21.827,1.119
		c-14.504,0.484-29.071,0.455-43.558-0.441c-4.498-0.278-9.215-0.05-13.682-0.577C624.129,717.901,624.037,717.709,624.01,715.308z
		 M634.263,794.724c-1.772-0.086-3.544-0.053-5.316-0.029c-0.842,0.011-3.13,0.479-3.875,0.027c-1.59-0.966-0.734-2.919-0.739-4.576
		c3.612,1.607,7.239,3.181,10.821,4.854C634.858,794.908,634.56,794.816,634.263,794.724z M643.178,751.375
		c-3.75-0.151-7.504-0.217-11.255-0.351c-1.892-0.068-4.474,0.38-6.273-0.196c-2.181-0.699-1.455-2.483-1.441-4.584
		c0.026-3.813-0.019-7.627-0.029-11.44c14.337,1.182,28.724,0.14,43.075-0.145c14.436-0.286,28.866-0.585,43.276-1.548
		c-2.413,5.276,1.478,11.984-1.64,17.031c-2.87,4.646-12.103,2.623-16.503,2.528C675.981,752.316,659.578,752.036,643.178,751.375z
		 M718.601,810.02c-0.826,7.256-6.388,5.145-11.129,3.021c-7.155-3.206-14.083-6.739-20.887-10.639
		c2.681,1.106,5.778,0.621,8.583,0.483c3.187-0.157,6.375,0.02,9.563,0.082c3.278,0.064,6.555,0.152,9.832,0.245
		c0.936,0.028,1.872,0.053,2.809,0.076c1.385-0.438,1.855,0.022,1.411,1.38C719.28,806.043,718.976,808.644,718.601,810.02z
		 M720.831,629.587c-1.039,10.831-1.389,21.717-2.535,32.539c-3.011-0.896-6.248-0.5-9.333-0.436
		c-3.515,0.073-7.042-0.111-10.55-0.313c-8.088-0.465-16.106-0.983-24.213-0.883c-7.788,0.096-15.538-0.534-23.317-0.809
		c-7.842-0.278-15.758-0.023-23.579-0.646c-1.545-0.123-5.128,0.158-6.039-1.196c-0.337-0.5,0.039-2.491,0.045-3.006
		c0.027-2.143,0.018-4.287,0.038-6.43c0.03-3.231,0.179-6.477,0.116-9.707c-0.035-1.831-0.816-3.655,1.063-4.248
		c2.343-0.74,6.149-0.055,8.589-0.151c3.985-0.158,7.97-0.329,11.953-0.529c8.217-0.412,16.431-0.938,24.624-1.701
		c8.725-0.813,17.437-1.161,26.183-1.659c9.082-0.518,18.095-1.949,27.191-2.222C720.857,628.633,720.779,629.099,720.831,629.587z
		 M727.838,734.58c-0.281,7.573-0.078,15.168-0.742,22.724c-1.747-0.537-3.653-0.244-5.448-0.336
		c1.408-3.372,1.571-7.161,2.094-10.737c0.651-4.445,1.39-8.872,1.735-13.356c0.841,0.204,1.691,0.257,2.551,0.161
		C727.863,733.538,727.8,734.052,727.838,734.58z M734.072,683.605c-0.371,6.233-1.05,12.444-1.35,18.682
		c-0.239,4.962-0.475,9.924-0.719,14.886c-1.235-0.207-2.502-0.071-3.744-0.071c0.743-11.8,2.418-23.435,3.367-35.194
		c0.096-1.193-0.427-3.288,0.976-3.685C735.185,677.495,734.143,682.417,734.072,683.605z M735.878,645.159
		c-0.126,5.943-0.175,11.887-0.362,17.828c-0.882-0.059-1.761-0.146-2.637-0.261c0.99-1.07,0.625-3.251,0.656-4.559
		c0.05-2.127,0.241-4.252,0.382-6.376c0.322-4.856,0.777-9.677,1.961-14.411C735.688,639.971,735.935,642.567,735.878,645.159z
		 M846.132,596.974c3.197,0.653,6.481,0.895,9.613,1.849c-3.251,0.32-6.705,0.764-9.703,2.14c-0.122-1.424-0.324-2.844-0.552-4.255
		C845.704,596.797,845.918,596.885,846.132,596.974z M832.585,666.992c2.615-10.386,5.598-20.705,7.862-31.173
		c1.136-5.254,2.28-10.505,3.429-15.756c0.234-1.07,0.228-2.361,1.088-3.045c0.892-0.71,2.981-0.402,4.064-0.673
		c-2.154,4.17-2.899,8.923-3.773,13.483c-0.989,5.166-2.259,10.276-3.497,15.387c-2.485,10.261-6.163,20.643-7.136,31.189
		c-1.491-0.427-2.984-0.849-4.486-1.238C831.207,672.525,831.886,669.747,832.585,666.992z M830.414,696.679
		c-0.431,2.59-5.561,2.978-7.428,3.874c0.204-0.869,0.408-1.738,0.612-2.606c0.243-1.054,0.486-2.108,0.727-3.162
		C826.33,695.492,828.368,696.101,830.414,696.679z M748.401,681.844c1.799,0.563,4.769,0.008,6.715,0.298
		c2.738,0.409,5.485,0.699,8.236,1.009c6.415,0.724,12.82,1.513,19.191,2.564c6.048,0.997,12.056,2.196,18.037,3.53
		c2.612,0.582,5.276,1.09,7.863,1.763c1.905,0.496,2.05,0.35,2.319,2.057c-0.711,3.606-0.43,11.062-3.585,13.552
		c-2.007,1.584-5.652,1.803-8.084,2.38c-3.606,0.856-7.231,1.597-10.902,2.115c-13.82,1.949-27.859,2.592-41.783,3.353
		c0.278-6.873,0.856-13.728,1.334-20.589C747.814,692.86,748.837,681.98,748.401,681.844z M806.993,670.315
		c-10.045-1.767-20.071-3.643-30.176-5.04c-4.872-0.674-9.732-1.389-14.616-1.967c-4.23-0.501-8.522-1.553-12.805-1.253
		c0.998-4.639,0.786-9.43,0.909-14.142c0.132-5.047,0.464-10.094,0.7-15.137c0.099-2.12-0.611-6.114,1.336-7.383
		c1.131-0.736,3.747-0.539,5.025-0.702c2.535-0.322,5.068-0.645,7.617-0.848c9.975-0.793,20.003-0.674,29.995-1.147
		c10.127-0.479,20.215-1.557,30.341-2.066c-1.512,5.599-1.8,11.445-2.872,17.13c-1.132,6.002-2.332,11.996-3.529,17.985
		c-0.599,2.998-1.289,5.969-2.01,8.94c-0.385,1.588-0.426,4.755-1.315,6.103C814.141,672.989,809.124,670.687,806.993,670.315z
		 M743.731,602.507c2.315-4.446,4.295-9.094,4.005-14.215c2.441,1.161,5.865,0.31,8.474,0.351c4.367,0.067,8.751,0.467,13.111,0.716
		c9.679,0.551,19.321,1.488,28.985,2.234c3.129,0.241,7.02-0.17,10.046,0.65c2.752,0.746,1.909,4.941,3.325,7.351
		c3.295,5.607,12.263,3.386,16.041-0.539c-0.159,0.979,0.242,2.528-0.297,3.414c-0.747,1.228-2.624,1.195-3.936,1.441
		c-4.515,0.844-9.058,1.195-13.625,1.647c-8.917,0.883-17.843,1.461-26.779,2.111c-8.61,0.626-17.161,1.847-25.775,2.406
		c-3.888,0.252-3.918,0.342-6.383-2.402c-2.133-2.375-4.776-3.666-7.908-4.201C743.254,603.149,743.493,602.828,743.731,602.507z
		 M743.139,740.639c0.195-2.125-0.357-8.633,1.617-9.857c0.695-0.431,2.223-0.167,3.046-0.23c2.089-0.161,4.178-0.472,6.261-0.694
		c8.288-0.883,16.577-1.778,24.848-2.802c8.324-1.03,16.948-1.705,25.181-3.226c-3.369,7.699-4.25,16.974-5.891,25.17
		c-0.897,4.482-1.91,8.932-2.909,13.392c-0.465,2.076-0.209,4.764-2.353,5.334c-0.97,0.258-2.516-0.186-3.544-0.208
		c-2.209-0.047-4.422,0.01-6.632-0.012c-4.662-0.047-9.321-0.171-13.979-0.333c-9.407-0.328-18.812-0.768-28.215-1.187
		C741.52,757.546,742.365,749.096,743.139,740.639z M795.34,802.483c-6.155-0.129-12.231-0.876-18.338-1.596
		c-6.585-0.777-13.255-1.089-19.725-2.63c-2.872-0.684-5.632-1.576-8.398-2.596c-3.15-1.163-3.19-1.389-2.937-4.59
		c10.768,2.709,22.62,3.278,33.666,4.156c5.419,0.43,10.87,0.619,16.263,1.326c2.634,0.346,5.251,0.809,7.885,1.152
		c0.101,0.013,4.915,0.631,4.766,0.809C805.407,802.361,799.879,802.578,795.34,802.483z M823.758,720.044
		c-3.644,15.061-6.928,30.212-10.108,45.376c-0.663,3.161-1.459,6.317-1.98,9.504c-0.337,2.062-0.271,4.493-1.087,6.44
		c-1.601,3.821-7.201,1.227-10.467,1.11c4.519-1.409,6.258-6.601,7.295-10.728c1.348-5.371,2.326-10.832,3.664-16.215
		c1.916-7.71,3.525-15.491,5.403-23.209c0.72-2.958,1.13-6,1.878-8.941c0.878-3.453,2.743-3.478,5.824-4.284
		C824.039,719.413,823.898,719.728,823.758,720.044z M848.227,713.123c-3.356,12.087-5.85,24.387-8.543,36.632
		c-1.319,5.997-2.683,11.985-4.223,17.929c-0.771,2.976-1.53,5.945-2.199,8.947c-0.439,1.973-0.487,5.189-1.531,6.951
		c-0.732,1.237-1.043,1.315-2.644,1.397c-1.064,0.054-3.899,0.15-4.64-0.817c-1.296-1.692,1.239-8.751,1.616-10.692
		c2.384-12.263,5.607-24.355,8.04-36.618c1.229-6.195,2.567-12.375,3.603-18.602c0.397-2.386,0.624-3.118,2.983-3.773
		c2.602-0.723,5.287-1.18,7.901-1.905C848.471,712.755,848.349,712.939,848.227,713.123z M864.884,645.442
		c-2.361,13.02-6.062,25.995-9.038,38.897c-1.709-1.01-3.509-1.854-5.34-2.617c-0.84-0.35-5.077-1.285-5.571-2.07
		c-0.359-0.569,1.28-4.893,1.473-5.883c0.393-2.013,0.7-4.041,1.034-6.065c1.416-8.575,3.603-17.057,5.979-25.411
		c2.367-8.32,4.445-16.722,6.37-25.156c0.808-3.541,1.046-3.597,4.501-4.531c1.426-0.386,8.789-2.243,9.18-3.078
		C870.095,621.083,866.776,635.008,864.884,645.442z"/>
</g>
</svg>
